<svg width="404" height="407" viewBox="0 0 404 407" fill="none" xmlns="http://www.w3.org/2000/svg">
<path d="M209.441 29.909C126.266 99.7011 150.886 239.349 173.428 295.189C199.922 310.168 233.147 300.176 246.165 293.958C313.855 163.236 243.941 48.3046 209.441 29.909Z" fill="#FAFDF4"/>
<path d="M171.689 320.303L172.629 293.765C218.827 312.745 247.701 291.839 246.242 293.063C245.075 294.043 242.535 313.34 242.383 322.05C209.883 347.328 181.42 331.242 171.689 320.303Z" fill="#F5AD91"/>
<path d="M235.594 56.1386C213.458 70.0612 191.304 63.7988 183.47 58.7435C189.723 44.8586 202.533 33.058 208.156 28.8934L208.908 14.9726C200.931 7.04706 206.955 2.76755 210.964 1.61849C220.356 5.69872 215.894 12.4327 212.489 15.2897L210.919 28.2357C223.724 38.7546 233.022 51.098 235.594 56.1386Z" fill="#E86961" stroke="#E86961" stroke-width="1.27341"/>
<path d="M204.752 344.888C188.384 308.786 199.393 267.709 206.944 251.683C211.207 244.119 215.08 251.5 216.484 256.137C229.405 289.317 218.371 333.46 213.783 344.786C210.113 353.846 206.233 348.629 204.752 344.888Z" fill="#E86961" stroke="#E86961" stroke-width="1.27341"/>
<path d="M184.463 135.988L171.363 136.182C168.666 129.806 170.52 123.323 171.784 120.878L185.779 120.763C189.883 106.688 201.705 103.523 207.103 103.701C225.462 104.243 232.977 115.768 234.44 121.462C235.619 130.44 233.457 149.53 215.381 154.066C197.305 158.602 187.237 143.904 184.463 135.988Z" fill="#09002E" stroke="#09002E" stroke-width="1.27341"/>
<path d="M151.332 169.602C166.259 190.025 212.551 218.338 274.502 169.678" stroke="#09002E" stroke-width="3.82022" stroke-linecap="round"/>
<path d="M153.298 209.483C175.255 225.114 229.881 246.224 272.729 205.619" stroke="#09002E" stroke-width="3.82022" stroke-linecap="round"/>
<path d="M167.249 277.947C161.324 262.984 154.505 223.576 153.511 207.245C114.722 238.463 110.438 287.807 113.698 307.498C114.467 319.478 118.264 315.573 120.066 312.123C133.456 278.294 157.477 276.179 167.249 277.947Z" fill="#E86961" stroke="#E86961" stroke-width="1.27341"/>
<ellipse cx="169.139" cy="203.666" rx="6.9845" ry="6.9991" transform="rotate(-40 169.139 203.666)" fill="#002154"/>
<path d="M311.084 304.67C320.691 239.464 290.669 207.056 273.837 203.46C275.446 214.07 261.064 259.031 254.954 275.786C294.109 261.204 302.75 296.713 306.121 304.682C308.818 311.057 310.554 307.331 311.084 304.67Z" fill="#E86961" stroke="#E86961" stroke-width="1.27341"/>
<ellipse cx="195.691" cy="209.627" rx="6.9845" ry="6.9991" transform="rotate(-40 195.691 209.627)" fill="#002154"/>
<ellipse cx="227.263" cy="209.714" rx="6.9845" ry="6.9991" transform="rotate(-40 227.263 209.714)" fill="#002154"/>
<ellipse cx="253.417" cy="199.396" rx="6.9845" ry="6.9991" transform="rotate(-40 253.417 199.396)" fill="#002154"/>
<ellipse cx="208.676" cy="128.858" rx="21.9834" ry="21.9868" transform="rotate(-40 208.676 128.858)" fill="#F5AD91"/>
</svg>
