<svg width="1920" height="1024" viewBox="0 0 1920 1024" fill="none" xmlns="http://www.w3.org/2000/svg">
<path fill-rule="evenodd" clip-rule="evenodd" d="M613.668 62C614.46 62 615 62.4867 615 63.0091C615 63.5262 614.452 64 613.668 64C612.791 64 612 63.587 612 63.0091C612 62.4264 612.783 62 613.668 62Z" fill="white"/>
<path fill-rule="evenodd" clip-rule="evenodd" d="M275.639 316C276.395 316 277 316.378 277 316.837C277 317.394 276.557 318 275.639 318C274.654 318 274 317.434 274 316.837C274 316.329 274.802 316 275.639 316Z" fill="white"/>
<path fill-rule="evenodd" clip-rule="evenodd" d="M474.265 154C475.163 154 476 154.384 476 154.947C476 155.539 475.208 156 474.265 156C473.445 156 473 155.462 473 154.947C473 154.465 473.496 154 474.265 154Z" fill="white"/>
<path fill-rule="evenodd" clip-rule="evenodd" d="M511.992 354C512.54 354 513 354.406 513 354.925C513 355.487 512.585 356 511.992 356C511.404 356 511 355.483 511 354.925C511 354.41 511.449 354 511.992 354Z" fill="white"/>
<path fill-rule="evenodd" clip-rule="evenodd" d="M371.003 442C371.531 442 372 442.359 372 442.849C372 443.426 371.624 444 371.003 444C370.38 444 370 443.427 370 442.849C370 442.357 370.473 442 371.003 442Z" fill="white"/>
<path fill-rule="evenodd" clip-rule="evenodd" d="M26.0051 398C26.5328 398 27 398.633 27 399.497C27 400.363 26.5336 401 26.0051 401C25.4737 401 25 400.368 25 399.497C25 398.628 25.4746 398 26.0051 398Z" fill="white"/>
<path fill-rule="evenodd" clip-rule="evenodd" d="M203.992 460C204.526 460 205 460.446 205 461.056C205 461.637 204.501 462 203.992 462C203.488 462 203 461.632 203 461.056C203 460.451 203.462 460 203.992 460Z" fill="white"/>
<path fill-rule="evenodd" clip-rule="evenodd" d="M34.9184 111C35.5205 111 36 111.428 36 111.948C36 112.497 35.5552 113 34.9184 113C34.322 113 34 112.462 34 111.948C34 111.465 34.3591 111 34.9184 111Z" fill="white"/>
<path fill-rule="evenodd" clip-rule="evenodd" d="M133.958 49C134.473 49 135 49.3655 135 50.0077C135 50.6462 134.47 51 133.958 51C133.471 51 133 50.614 133 50.0077C133 49.3975 133.468 49 133.958 49Z" fill="white"/>
<path fill-rule="evenodd" clip-rule="evenodd" d="M458.923 79C459.457 79 460 79.3656 460 80.0003C460 80.6349 459.456 81 458.923 81C458.435 81 458 80.5802 458 80.0003C458 79.4203 458.435 79 458.923 79Z" fill="white"/>
<path fill-rule="evenodd" clip-rule="evenodd" d="M489.946 281C490.488 281 491 281.637 491 282.594C491 283.505 490.462 284 489.946 284C489.463 284 489 283.447 489 282.594C489 281.692 489.436 281 489.946 281Z" fill="white"/>
<path fill-rule="evenodd" clip-rule="evenodd" d="M558.362 208C559.718 208 561 209.206 561 211.02C561 213.097 559.915 215 558.362 215C556.878 215 556 213.004 556 211.02C556 209.313 557.086 208 558.362 208Z" fill="white"/>
<path fill-rule="evenodd" clip-rule="evenodd" d="M373.419 356C374.288 356 375 356.661 375 357.485C375 358.317 374.297 359 373.419 359C372.584 359 372 358.276 372 357.485C372 356.702 372.594 356 373.419 356Z" fill="white"/>
<path fill-rule="evenodd" clip-rule="evenodd" d="M76.5132 281C77.3041 281 78 281.659 78 282.551C78 283.417 77.2805 284 76.5132 284C75.7381 284 75 283.425 75 282.551C75 281.65 75.7147 281 76.5132 281Z" fill="white"/>
<path fill-rule="evenodd" clip-rule="evenodd" d="M178.019 341C178.519 341 179 341.6 179 342.532C179 343.449 178.51 344 178.019 344C177.516 344 177 343.471 177 342.532C177 341.578 177.508 341 178.019 341Z" fill="white"/>
<path fill-rule="evenodd" clip-rule="evenodd" d="M310.601 398C311.348 398 312 398.589 312 399.379C312 400.236 311.411 401 310.601 401C309.735 401 309 400.294 309 399.379C309 398.526 309.794 398 310.601 398Z" fill="white"/>
<path fill-rule="evenodd" clip-rule="evenodd" d="M165.155 132C166.698 132 168 133.114 168 134.549C168 135.957 166.669 137 165.155 137C163.825 137 163 135.785 163 134.549C163 133.283 163.793 132 165.155 132Z" fill="white"/>
<path fill-rule="evenodd" clip-rule="evenodd" d="M372.946 192C373.482 192 374 192.59 374 193.515C374 194.432 373.478 195 372.946 195C372.447 195 372 194.377 372 193.515C372 192.645 372.442 192 372.946 192Z" fill="white"/>
<path fill-rule="evenodd" clip-rule="evenodd" d="M171.035 236C171.54 236 172 236.404 172 236.978C172 237.563 171.55 238 171.035 238C170.5 238 170 237.587 170 236.978C170 236.381 170.509 236 171.035 236Z" fill="white"/>
<path fill-rule="evenodd" clip-rule="evenodd" d="M315.897 236C316.454 236 317 236.371 317 236.969C317 237.582 316.468 238 315.897 238C315.384 238 315 237.52 315 236.969C315 236.435 315.401 236 315.897 236Z" fill="white"/>
<path fill-rule="evenodd" clip-rule="evenodd" d="M95.5892 184C96.3316 184 97 184.605 97 185.449C97 186.321 96.3553 187 95.5892 187C94.7715 187 94 186.379 94 185.449C94 184.544 94.7937 184 95.5892 184Z" fill="white"/>
<path fill-rule="evenodd" clip-rule="evenodd" d="M271.1 75C271.648 75 272 75.7696 272 76.5679C272 77.3263 271.62 78 271.1 78C270.524 78 270 77.4075 270 76.5679C270 75.6921 270.499 75 271.1 75Z" fill="white"/>
<path fill-rule="evenodd" clip-rule="evenodd" d="M554.668 616C555.46 616 556 616.487 556 617.009C556 617.526 555.452 618 554.668 618C553.791 618 553 617.587 553 617.009C553 616.426 553.783 616 554.668 616Z" fill="white"/>
<path fill-rule="evenodd" clip-rule="evenodd" d="M216.639 870C217.395 870 218 870.378 218 870.837C218 871.394 217.557 872 216.639 872C215.654 872 215 871.434 215 870.837C215 870.329 215.802 870 216.639 870Z" fill="white"/>
<path fill-rule="evenodd" clip-rule="evenodd" d="M415.265 708C416.163 708 417 708.384 417 708.947C417 709.539 416.208 710 415.265 710C414.445 710 414 709.462 414 708.947C414 708.465 414.496 708 415.265 708Z" fill="white"/>
<path fill-rule="evenodd" clip-rule="evenodd" d="M452.992 908C453.54 908 454 908.406 454 908.925C454 909.487 453.585 910 452.992 910C452.404 910 452 909.483 452 908.925C452 908.41 452.449 908 452.992 908Z" fill="white"/>
<path fill-rule="evenodd" clip-rule="evenodd" d="M312.003 996C312.531 996 313 996.359 313 996.849C313 997.426 312.624 998 312.003 998C311.38 998 311 997.427 311 996.849C311 996.357 311.473 996 312.003 996Z" fill="white"/>
<path fill-rule="evenodd" clip-rule="evenodd" d="M144.992 1014C145.526 1014 146 1014.45 146 1015.06C146 1015.64 145.501 1016 144.992 1016C144.488 1016 144 1015.63 144 1015.06C144 1014.45 144.462 1014 144.992 1014Z" fill="white"/>
<path fill-rule="evenodd" clip-rule="evenodd" d="M74.9577 603C75.4728 603 76 603.366 76 604.008C76 604.646 75.4699 605 74.9577 605C74.4714 605 74 604.614 74 604.008C74 603.398 74.4683 603 74.9577 603Z" fill="white"/>
<path fill-rule="evenodd" clip-rule="evenodd" d="M399.923 633C400.457 633 401 633.366 401 634C401 634.635 400.456 635 399.923 635C399.435 635 399 634.58 399 634C399 633.42 399.435 633 399.923 633Z" fill="white"/>
<path fill-rule="evenodd" clip-rule="evenodd" d="M430.946 835C431.488 835 432 835.637 432 836.594C432 837.505 431.462 838 430.946 838C430.463 838 430 837.447 430 836.594C430 835.692 430.436 835 430.946 835Z" fill="white"/>
<path fill-rule="evenodd" clip-rule="evenodd" d="M498.417 762C499.231 762 500 762.344 500 762.863C500 763.456 499.349 764 498.417 764C497.527 764 497 763.43 497 762.863C497 762.375 497.652 762 498.417 762Z" fill="white"/>
<path fill-rule="evenodd" clip-rule="evenodd" d="M314.419 910C315.288 910 316 910.661 316 911.485C316 912.317 315.297 913 314.419 913C313.584 913 313 912.276 313 911.485C313 910.702 313.594 910 314.419 910Z" fill="white"/>
<path fill-rule="evenodd" clip-rule="evenodd" d="M17.5132 835C18.3041 835 19 835.659 19 836.551C19 837.417 18.2805 838 17.5132 838C16.7381 838 16 837.425 16 836.551C16 835.65 16.7147 835 17.5132 835Z" fill="white"/>
<path fill-rule="evenodd" clip-rule="evenodd" d="M119.019 895C119.519 895 120 895.6 120 896.532C120 897.449 119.51 898 119.019 898C118.516 898 118 897.471 118 896.532C118 895.578 118.508 895 119.019 895Z" fill="white"/>
<path fill-rule="evenodd" clip-rule="evenodd" d="M251.601 952C252.348 952 253 952.589 253 953.379C253 954.236 252.411 955 251.601 955C250.735 955 250 954.294 250 953.379C250 952.526 250.794 952 251.601 952Z" fill="white"/>
<path fill-rule="evenodd" clip-rule="evenodd" d="M104.862 686C105.479 686 106 686.446 106 687.019C106 687.583 105.468 688 104.862 688C104.33 688 104 687.514 104 687.019C104 686.513 104.317 686 104.862 686Z" fill="white"/>
<path fill-rule="evenodd" clip-rule="evenodd" d="M313.946 746C314.482 746 315 746.59 315 747.515C315 748.432 314.478 749 313.946 749C313.447 749 313 748.377 313 747.515C313 746.645 313.442 746 313.946 746Z" fill="white"/>
<path fill-rule="evenodd" clip-rule="evenodd" d="M112.035 790C112.54 790 113 790.404 113 790.978C113 791.563 112.55 792 112.035 792C111.5 792 111 791.587 111 790.978C111 790.381 111.509 790 112.035 790Z" fill="white"/>
<path fill-rule="evenodd" clip-rule="evenodd" d="M256.897 790C257.454 790 258 790.371 258 790.969C258 791.582 257.468 792 256.897 792C256.384 792 256 791.52 256 790.969C256 790.435 256.401 790 256.897 790Z" fill="white"/>
<path fill-rule="evenodd" clip-rule="evenodd" d="M36.5892 738C37.3316 738 38 738.605 38 739.449C38 740.321 37.3553 741 36.5892 741C35.7715 741 35 740.379 35 739.449C35 738.544 35.7937 738 36.5892 738Z" fill="white"/>
<path fill-rule="evenodd" clip-rule="evenodd" d="M213.2 629C214.296 629 215 631.309 215 633.704C215 635.979 214.241 638 213.2 638C212.048 638 211 636.222 211 633.704C211 631.076 211.998 629 213.2 629Z" fill="white"/>
<path fill-rule="evenodd" clip-rule="evenodd" d="M1154.67 574C1155.46 574 1156 574.487 1156 575.009C1156 575.526 1155.45 576 1154.67 576C1153.79 576 1153 575.587 1153 575.009C1153 574.426 1153.78 574 1154.67 574Z" fill="white"/>
<path fill-rule="evenodd" clip-rule="evenodd" d="M501.928 701C502.544 701 503 701.511 503 702.093C503 702.624 502.49 703 501.928 703C501.407 703 501 702.586 501 702.093C501 701.546 501.349 701 501.928 701Z" fill="white"/>
<path fill-rule="evenodd" clip-rule="evenodd" d="M816.639 828C817.395 828 818 828.378 818 828.837C818 829.394 817.557 830 816.639 830C815.654 830 815 829.434 815 828.837C815 828.329 815.802 828 816.639 828Z" fill="white"/>
<path fill-rule="evenodd" clip-rule="evenodd" d="M1016.53 666C1018.33 666 1020 667.535 1020 669.789C1020 672.155 1018.42 674 1016.53 674C1014.89 674 1014 671.849 1014 669.789C1014 667.858 1014.99 666 1016.53 666Z" fill="white"/>
<path fill-rule="evenodd" clip-rule="evenodd" d="M1052.99 866C1053.54 866 1054 866.406 1054 866.925C1054 867.487 1053.58 868 1052.99 868C1052.4 868 1052 867.483 1052 866.925C1052 866.41 1052.45 866 1052.99 866Z" fill="white"/>
<path fill-rule="evenodd" clip-rule="evenodd" d="M912.003 954C912.531 954 913 954.359 913 954.849C913 955.426 912.624 956 912.003 956C911.38 956 911 955.427 911 954.849C911 954.357 911.473 954 912.003 954Z" fill="white"/>
<path fill-rule="evenodd" clip-rule="evenodd" d="M567.005 910C567.533 910 568 910.633 568 911.497C568 912.363 567.534 913 567.005 913C566.474 913 566 912.368 566 911.497C566 910.628 566.475 910 567.005 910Z" fill="white"/>
<path fill-rule="evenodd" clip-rule="evenodd" d="M744.992 972C745.526 972 746 972.446 746 973.056C746 973.637 745.501 974 744.992 974C744.488 974 744 973.632 744 973.056C744 972.451 744.462 972 744.992 972Z" fill="white"/>
<path fill-rule="evenodd" clip-rule="evenodd" d="M575.918 623C576.521 623 577 623.428 577 623.948C577 624.497 576.555 625 575.918 625C575.322 625 575 624.462 575 623.948C575 623.465 575.359 623 575.918 623Z" fill="white"/>
<path fill-rule="evenodd" clip-rule="evenodd" d="M674.958 561C675.473 561 676 561.366 676 562.008C676 562.646 675.47 563 674.958 563C674.471 563 674 562.614 674 562.008C674 561.398 674.468 561 674.958 561Z" fill="white"/>
<path fill-rule="evenodd" clip-rule="evenodd" d="M999.923 591C1000.46 591 1001 591.366 1001 592C1001 592.635 1000.46 593 999.923 593C999.435 593 999 592.58 999 592C999 591.42 999.435 591 999.923 591Z" fill="white"/>
<path fill-rule="evenodd" clip-rule="evenodd" d="M1030.95 793C1031.49 793 1032 793.637 1032 794.594C1032 795.505 1031.46 796 1030.95 796C1030.46 796 1030 795.447 1030 794.594C1030 793.692 1030.44 793 1030.95 793Z" fill="white"/>
<path fill-rule="evenodd" clip-rule="evenodd" d="M1098.42 720C1099.23 720 1100 720.344 1100 720.863C1100 721.456 1099.35 722 1098.42 722C1097.53 722 1097 721.43 1097 720.863C1097 720.375 1097.65 720 1098.42 720Z" fill="white"/>
<path fill-rule="evenodd" clip-rule="evenodd" d="M914.419 868C915.288 868 916 868.661 916 869.485C916 870.317 915.297 871 914.419 871C913.584 871 913 870.276 913 869.485C913 868.702 913.594 868 914.419 868Z" fill="white"/>
<path fill-rule="evenodd" clip-rule="evenodd" d="M617.513 793C618.304 793 619 793.659 619 794.551C619 795.417 618.28 796 617.513 796C616.738 796 616 795.425 616 794.551C616 793.65 616.715 793 617.513 793Z" fill="white"/>
<path fill-rule="evenodd" clip-rule="evenodd" d="M720.547 853C721.796 853 723 853.6 723 854.532C723 855.449 721.775 856 720.547 856C719.291 856 718 855.471 718 854.532C718 853.578 719.27 853 720.547 853Z" fill="white"/>
<path fill-rule="evenodd" clip-rule="evenodd" d="M851.601 910C852.348 910 853 910.589 853 911.379C853 912.236 852.411 913 851.601 913C850.735 913 850 912.294 850 911.379C850 910.526 850.794 910 851.601 910Z" fill="white"/>
<path fill-rule="evenodd" clip-rule="evenodd" d="M704.862 644C705.479 644 706 644.446 706 645.019C706 645.583 705.468 646 704.862 646C704.33 646 704 645.514 704 645.019C704 644.513 704.317 644 704.862 644Z" fill="white"/>
<path fill-rule="evenodd" clip-rule="evenodd" d="M913.946 704C914.482 704 915 704.59 915 705.515C915 706.432 914.478 707 913.946 707C913.447 707 913 706.377 913 705.515C913 704.645 913.442 704 913.946 704Z" fill="white"/>
<path fill-rule="evenodd" clip-rule="evenodd" d="M712.035 748C712.54 748 713 748.404 713 748.978C713 749.563 712.55 750 712.035 750C711.5 750 711 749.587 711 748.978C711 748.381 711.509 748 712.035 748Z" fill="white"/>
<path fill-rule="evenodd" clip-rule="evenodd" d="M856.897 748C857.454 748 858 748.371 858 748.969C858 749.582 857.468 750 856.897 750C856.384 750 856 749.52 856 748.969C856 748.435 856.401 748 856.897 748Z" fill="white"/>
<path fill-rule="evenodd" clip-rule="evenodd" d="M636.589 696C637.332 696 638 696.605 638 697.449C638 698.321 637.355 699 636.589 699C635.772 699 635 698.379 635 697.449C635 696.544 635.794 696 636.589 696Z" fill="white"/>
<path fill-rule="evenodd" clip-rule="evenodd" d="M812.1 587C812.648 587 813 587.77 813 588.568C813 589.326 812.62 590 812.1 590C811.524 590 811 589.407 811 588.568C811 587.692 811.499 587 812.1 587Z" fill="white"/>
<path fill-rule="evenodd" clip-rule="evenodd" d="M1844.67 675C1845.46 675 1846 675.487 1846 676.009C1846 676.526 1845.45 677 1844.67 677C1843.79 677 1843 676.587 1843 676.009C1843 675.426 1843.78 675 1844.67 675Z" fill="white"/>
<path fill-rule="evenodd" clip-rule="evenodd" d="M1191.93 802C1192.54 802 1193 802.511 1193 803.093C1193 803.624 1192.49 804 1191.93 804C1191.41 804 1191 803.586 1191 803.093C1191 802.546 1191.35 802 1191.93 802Z" fill="white"/>
<path fill-rule="evenodd" clip-rule="evenodd" d="M1506.64 929C1507.4 929 1508 929.378 1508 929.837C1508 930.394 1507.56 931 1506.64 931C1505.65 931 1505 930.434 1505 929.837C1505 929.329 1505.8 929 1506.64 929Z" fill="white"/>
<path fill-rule="evenodd" clip-rule="evenodd" d="M1705.27 767C1706.16 767 1707 767.384 1707 767.947C1707 768.539 1706.21 769 1705.27 769C1704.44 769 1704 768.462 1704 767.947C1704 767.465 1704.5 767 1705.27 767Z" fill="white"/>
<path fill-rule="evenodd" clip-rule="evenodd" d="M1742.99 967C1743.54 967 1744 967.406 1744 967.925C1744 968.487 1743.58 969 1742.99 969C1742.4 969 1742 968.483 1742 967.925C1742 967.41 1742.45 967 1742.99 967Z" fill="white"/>
<path fill-rule="evenodd" clip-rule="evenodd" d="M1257.01 1011C1257.53 1011 1258 1011.63 1258 1012.5C1258 1013.36 1257.53 1014 1257.01 1014C1256.47 1014 1256 1013.37 1256 1012.5C1256 1011.63 1256.47 1011 1257.01 1011Z" fill="white"/>
<path fill-rule="evenodd" clip-rule="evenodd" d="M1265.92 724C1266.52 724 1267 724.428 1267 724.948C1267 725.497 1266.56 726 1265.92 726C1265.32 726 1265 725.462 1265 724.948C1265 724.465 1265.36 724 1265.92 724Z" fill="white"/>
<path fill-rule="evenodd" clip-rule="evenodd" d="M1364.96 662C1365.47 662 1366 662.366 1366 663.008C1366 663.646 1365.47 664 1364.96 664C1364.47 664 1364 663.614 1364 663.008C1364 662.398 1364.47 662 1364.96 662Z" fill="white"/>
<path fill-rule="evenodd" clip-rule="evenodd" d="M1691.31 692C1692.64 692 1694 693.097 1694 695.001C1694 696.905 1692.64 698 1691.31 698C1690.09 698 1689 696.74 1689 695.001C1689 693.261 1690.09 692 1691.31 692Z" fill="white"/>
<path fill-rule="evenodd" clip-rule="evenodd" d="M1720.95 894C1721.49 894 1722 894.637 1722 895.594C1722 896.505 1721.46 897 1720.95 897C1720.46 897 1720 896.447 1720 895.594C1720 894.692 1720.44 894 1720.95 894Z" fill="white"/>
<path fill-rule="evenodd" clip-rule="evenodd" d="M1788.42 821C1789.23 821 1790 821.344 1790 821.863C1790 822.456 1789.35 823 1788.42 823C1787.53 823 1787 822.43 1787 821.863C1787 821.375 1787.65 821 1788.42 821Z" fill="white"/>
<path fill-rule="evenodd" clip-rule="evenodd" d="M1604.42 969C1605.29 969 1606 969.661 1606 970.485C1606 971.317 1605.3 972 1604.42 972C1603.58 972 1603 971.276 1603 970.485C1603 969.702 1603.59 969 1604.42 969Z" fill="white"/>
<path fill-rule="evenodd" clip-rule="evenodd" d="M1307.51 894C1308.3 894 1309 894.659 1309 895.551C1309 896.417 1308.28 897 1307.51 897C1306.74 897 1306 896.425 1306 895.551C1306 894.65 1306.71 894 1307.51 894Z" fill="white"/>
<path fill-rule="evenodd" clip-rule="evenodd" d="M1409.02 954C1409.52 954 1410 954.6 1410 955.532C1410 956.449 1409.51 957 1409.02 957C1408.52 957 1408 956.471 1408 955.532C1408 954.578 1408.51 954 1409.02 954Z" fill="white"/>
<path fill-rule="evenodd" clip-rule="evenodd" d="M1541.6 1011C1542.35 1011 1543 1011.59 1543 1012.38C1543 1013.24 1542.41 1014 1541.6 1014C1540.73 1014 1540 1013.29 1540 1012.38C1540 1011.53 1540.79 1011 1541.6 1011Z" fill="white"/>
<path fill-rule="evenodd" clip-rule="evenodd" d="M1394.86 745C1395.48 745 1396 745.446 1396 746.019C1396 746.583 1395.47 747 1394.86 747C1394.33 747 1394 746.514 1394 746.019C1394 745.513 1394.32 745 1394.86 745Z" fill="white"/>
<path fill-rule="evenodd" clip-rule="evenodd" d="M1603.95 805C1604.48 805 1605 805.59 1605 806.515C1605 807.432 1604.48 808 1603.95 808C1603.45 808 1603 807.377 1603 806.515C1603 805.645 1603.44 805 1603.95 805Z" fill="white"/>
<path fill-rule="evenodd" clip-rule="evenodd" d="M1402.04 849C1402.54 849 1403 849.404 1403 849.978C1403 850.563 1402.55 851 1402.04 851C1401.5 851 1401 850.587 1401 849.978C1401 849.381 1401.51 849 1402.04 849Z" fill="white"/>
<path fill-rule="evenodd" clip-rule="evenodd" d="M1546.9 849C1547.45 849 1548 849.371 1548 849.969C1548 850.582 1547.47 851 1546.9 851C1546.38 851 1546 850.52 1546 849.969C1546 849.435 1546.4 849 1546.9 849Z" fill="white"/>
<path fill-rule="evenodd" clip-rule="evenodd" d="M1326.59 797C1327.33 797 1328 797.605 1328 798.449C1328 799.321 1327.36 800 1326.59 800C1325.77 800 1325 799.379 1325 798.449C1325 797.544 1325.79 797 1326.59 797Z" fill="white"/>
<path fill-rule="evenodd" clip-rule="evenodd" d="M1502.1 688C1502.65 688 1503 688.77 1503 689.568C1503 690.326 1502.62 691 1502.1 691C1501.52 691 1501 690.407 1501 689.568C1501 688.692 1501.5 688 1502.1 688Z" fill="white"/>
<path fill-rule="evenodd" clip-rule="evenodd" d="M1873.67 248C1874.46 248 1875 248.487 1875 249.009C1875 249.526 1874.45 250 1873.67 250C1872.79 250 1872 249.587 1872 249.009C1872 248.426 1872.78 248 1873.67 248Z" fill="white"/>
<path fill-rule="evenodd" clip-rule="evenodd" d="M1220.93 375C1221.54 375 1222 375.511 1222 376.093C1222 376.624 1221.49 377 1220.93 377C1220.41 377 1220 376.586 1220 376.093C1220 375.546 1220.35 375 1220.93 375Z" fill="white"/>
<path fill-rule="evenodd" clip-rule="evenodd" d="M1535.64 502C1536.4 502 1537 502.378 1537 502.837C1537 503.394 1536.56 504 1535.64 504C1534.65 504 1534 503.434 1534 502.837C1534 502.329 1534.8 502 1535.64 502Z" fill="white"/>
<path fill-rule="evenodd" clip-rule="evenodd" d="M1734.27 340C1735.16 340 1736 340.384 1736 340.947C1736 341.539 1735.21 342 1734.27 342C1733.44 342 1733 341.462 1733 340.947C1733 340.465 1733.5 340 1734.27 340Z" fill="white"/>
<path fill-rule="evenodd" clip-rule="evenodd" d="M1771.99 540C1772.54 540 1773 540.406 1773 540.925C1773 541.487 1772.58 542 1771.99 542C1771.4 542 1771 541.483 1771 540.925C1771 540.41 1771.45 540 1771.99 540Z" fill="white"/>
<path fill-rule="evenodd" clip-rule="evenodd" d="M1631 628C1631.53 628 1632 628.359 1632 628.849C1632 629.426 1631.62 630 1631 630C1630.38 630 1630 629.427 1630 628.849C1630 628.357 1630.47 628 1631 628Z" fill="white"/>
<path fill-rule="evenodd" clip-rule="evenodd" d="M1286.01 584C1286.53 584 1287 584.633 1287 585.497C1287 586.363 1286.53 587 1286.01 587C1285.47 587 1285 586.368 1285 585.497C1285 584.628 1285.47 584 1286.01 584Z" fill="white"/>
<path fill-rule="evenodd" clip-rule="evenodd" d="M1463.99 646C1464.53 646 1465 646.446 1465 647.056C1465 647.637 1464.5 648 1463.99 648C1463.49 648 1463 647.632 1463 647.056C1463 646.451 1463.46 646 1463.99 646Z" fill="white"/>
<path fill-rule="evenodd" clip-rule="evenodd" d="M1294.92 297C1295.52 297 1296 297.428 1296 297.948C1296 298.497 1295.56 299 1294.92 299C1294.32 299 1294 298.462 1294 297.948C1294 297.465 1294.36 297 1294.92 297Z" fill="white"/>
<path fill-rule="evenodd" clip-rule="evenodd" d="M1393.96 235C1394.47 235 1395 235.366 1395 236.008C1395 236.646 1394.47 237 1393.96 237C1393.47 237 1393 236.614 1393 236.008C1393 235.398 1393.47 235 1393.96 235Z" fill="white"/>
<path fill-rule="evenodd" clip-rule="evenodd" d="M1718.92 265C1719.46 265 1720 265.366 1720 266C1720 266.635 1719.46 267 1718.92 267C1718.44 267 1718 266.58 1718 266C1718 265.42 1718.44 265 1718.92 265Z" fill="white"/>
<path fill-rule="evenodd" clip-rule="evenodd" d="M1752.31 467C1754.21 467 1756 468.061 1756 469.656C1756 471.175 1754.12 472 1752.31 472C1750.62 472 1749 471.078 1749 469.656C1749 468.153 1750.52 467 1752.31 467Z" fill="white"/>
<path fill-rule="evenodd" clip-rule="evenodd" d="M1817.42 394C1818.23 394 1819 394.344 1819 394.863C1819 395.456 1818.35 396 1817.42 396C1816.53 396 1816 395.43 1816 394.863C1816 394.375 1816.65 394 1817.42 394Z" fill="white"/>
<path fill-rule="evenodd" clip-rule="evenodd" d="M1633.42 542C1634.29 542 1635 542.661 1635 543.485C1635 544.317 1634.3 545 1633.42 545C1632.58 545 1632 544.276 1632 543.485C1632 542.702 1632.59 542 1633.42 542Z" fill="white"/>
<path fill-rule="evenodd" clip-rule="evenodd" d="M1336.51 467C1337.3 467 1338 467.659 1338 468.551C1338 469.417 1337.28 470 1336.51 470C1335.74 470 1335 469.425 1335 468.551C1335 467.65 1335.71 467 1336.51 467Z" fill="white"/>
<path fill-rule="evenodd" clip-rule="evenodd" d="M1438.02 527C1438.52 527 1439 527.6 1439 528.532C1439 529.449 1438.51 530 1438.02 530C1437.52 530 1437 529.471 1437 528.532C1437 527.578 1437.51 527 1438.02 527Z" fill="white"/>
<path fill-rule="evenodd" clip-rule="evenodd" d="M1570.6 584C1571.35 584 1572 584.589 1572 585.379C1572 586.236 1571.41 587 1570.6 587C1569.73 587 1569 586.294 1569 585.379C1569 584.526 1569.79 584 1570.6 584Z" fill="white"/>
<path fill-rule="evenodd" clip-rule="evenodd" d="M1423.86 318C1424.48 318 1425 318.446 1425 319.019C1425 319.583 1424.47 320 1423.86 320C1423.33 320 1423 319.514 1423 319.019C1423 318.513 1423.32 318 1423.86 318Z" fill="white"/>
<path fill-rule="evenodd" clip-rule="evenodd" d="M1632.95 378C1633.48 378 1634 378.59 1634 379.515C1634 380.432 1633.48 381 1632.95 381C1632.45 381 1632 380.377 1632 379.515C1632 378.645 1632.44 378 1632.95 378Z" fill="white"/>
<path fill-rule="evenodd" clip-rule="evenodd" d="M1431.04 422C1431.54 422 1432 422.404 1432 422.978C1432 423.563 1431.55 424 1431.04 424C1430.5 424 1430 423.587 1430 422.978C1430 422.381 1430.51 422 1431.04 422Z" fill="white"/>
<path fill-rule="evenodd" clip-rule="evenodd" d="M1575.9 422C1576.45 422 1577 422.371 1577 422.969C1577 423.582 1576.47 424 1575.9 424C1575.38 424 1575 423.52 1575 422.969C1575 422.435 1575.4 422 1575.9 422Z" fill="white"/>
<path fill-rule="evenodd" clip-rule="evenodd" d="M1355.59 370C1356.33 370 1357 370.605 1357 371.449C1357 372.321 1356.36 373 1355.59 373C1354.77 373 1354 372.379 1354 371.449C1354 370.544 1354.79 370 1355.59 370Z" fill="white"/>
<path fill-rule="evenodd" clip-rule="evenodd" d="M1534.4 261C1536.59 261 1538 262.283 1538 263.613C1538 264.877 1536.48 266 1534.4 266C1532.1 266 1530 265.012 1530 263.613C1530 262.153 1532 261 1534.4 261Z" fill="white"/>
<path fill-rule="evenodd" clip-rule="evenodd" d="M1580.64 84C1581.4 84 1582 84.3775 1582 84.8365C1582 85.3937 1581.56 86 1580.64 86C1579.65 86 1579 85.4341 1579 84.8365C1579 84.3292 1579.8 84 1580.64 84Z" fill="white"/>
<path fill-rule="evenodd" clip-rule="evenodd" d="M1816.99 122C1817.54 122 1818 122.406 1818 122.925C1818 123.487 1817.58 124 1816.99 124C1816.4 124 1816 123.483 1816 122.925C1816 122.41 1816.45 122 1816.99 122Z" fill="white"/>
<path fill-rule="evenodd" clip-rule="evenodd" d="M1676 210C1676.53 210 1677 210.359 1677 210.849C1677 211.426 1676.62 212 1676 212C1675.38 212 1675 211.427 1675 210.849C1675 210.357 1675.47 210 1676 210Z" fill="white"/>
<path fill-rule="evenodd" clip-rule="evenodd" d="M1331.01 166C1331.53 166 1332 166.633 1332 167.497C1332 168.363 1331.53 169 1331.01 169C1330.47 169 1330 168.368 1330 167.497C1330 166.628 1330.47 166 1331.01 166Z" fill="white"/>
<path fill-rule="evenodd" clip-rule="evenodd" d="M1508.99 228C1509.53 228 1510 228.446 1510 229.056C1510 229.637 1509.5 230 1508.99 230C1508.49 230 1508 229.632 1508 229.056C1508 228.451 1508.46 228 1508.99 228Z" fill="white"/>
<path fill-rule="evenodd" clip-rule="evenodd" d="M1794.95 49C1795.49 49 1796 49.6368 1796 50.5938C1796 51.5049 1795.46 52 1794.95 52C1794.46 52 1794 51.4467 1794 50.5938C1794 49.692 1794.44 49 1794.95 49Z" fill="white"/>
<path fill-rule="evenodd" clip-rule="evenodd" d="M1678.42 124C1679.29 124 1680 124.661 1680 125.485C1680 126.317 1679.3 127 1678.42 127C1677.58 127 1677 126.276 1677 125.485C1677 124.702 1677.59 124 1678.42 124Z" fill="white"/>
<path fill-rule="evenodd" clip-rule="evenodd" d="M1381.51 49C1382.3 49 1383 49.659 1383 50.5511C1383 51.4166 1382.28 52 1381.51 52C1380.74 52 1380 51.4255 1380 50.5511C1380 49.6505 1380.71 49 1381.51 49Z" fill="white"/>
<path fill-rule="evenodd" clip-rule="evenodd" d="M1483.02 109C1483.52 109 1484 109.6 1484 110.532C1484 111.449 1483.51 112 1483.02 112C1482.52 112 1482 111.471 1482 110.532C1482 109.578 1482.51 109 1483.02 109Z" fill="white"/>
<path fill-rule="evenodd" clip-rule="evenodd" d="M1615.6 166C1616.35 166 1617 166.589 1617 167.379C1617 168.236 1616.41 169 1615.6 169C1614.73 169 1614 168.294 1614 167.379C1614 166.526 1614.79 166 1615.6 166Z" fill="white"/>
<path fill-rule="evenodd" clip-rule="evenodd" d="M1476.04 4C1476.54 4 1477 4.40443 1477 4.97819C1477 5.56343 1476.55 6 1476.04 6C1475.5 6 1475 5.5866 1475 4.97819C1475 4.38081 1475.51 4 1476.04 4Z" fill="white"/>
<path fill-rule="evenodd" clip-rule="evenodd" d="M1620.9 4C1621.45 4 1622 4.37099 1622 4.96872C1622 5.5822 1621.47 6 1620.9 6C1620.38 6 1620 5.52018 1620 4.96872C1620 4.43484 1620.4 4 1620.9 4Z" fill="white"/>
<path fill-rule="evenodd" clip-rule="evenodd" d="M1313.67 160C1314.46 160 1315 160.487 1315 161.009C1315 161.526 1314.45 162 1313.67 162C1312.79 162 1312 161.587 1312 161.009C1312 160.426 1312.78 160 1313.67 160Z" fill="white"/>
<path fill-rule="evenodd" clip-rule="evenodd" d="M660.928 287C661.544 287 662 287.511 662 288.093C662 288.624 661.49 289 660.928 289C660.407 289 660 288.586 660 288.093C660 287.546 660.349 287 660.928 287Z" fill="white"/>
<path fill-rule="evenodd" clip-rule="evenodd" d="M975.639 414C976.395 414 977 414.378 977 414.837C977 415.394 976.557 416 975.639 416C974.654 416 974 415.434 974 414.837C974 414.329 974.802 414 975.639 414Z" fill="white"/>
<path fill-rule="evenodd" clip-rule="evenodd" d="M1174.27 252C1175.16 252 1176 252.384 1176 252.947C1176 253.539 1175.21 254 1174.27 254C1173.44 254 1173 253.462 1173 252.947C1173 252.465 1173.5 252 1174.27 252Z" fill="white"/>
<path fill-rule="evenodd" clip-rule="evenodd" d="M1211.99 452C1212.54 452 1213 452.406 1213 452.925C1213 453.487 1212.58 454 1211.99 454C1211.4 454 1211 453.483 1211 452.925C1211 452.41 1211.45 452 1211.99 452Z" fill="white"/>
<path fill-rule="evenodd" clip-rule="evenodd" d="M1071 540C1071.53 540 1072 540.359 1072 540.849C1072 541.426 1071.62 542 1071 542C1070.38 542 1070 541.427 1070 540.849C1070 540.357 1070.47 540 1071 540Z" fill="white"/>
<path fill-rule="evenodd" clip-rule="evenodd" d="M726.005 496C726.533 496 727 496.633 727 497.497C727 498.363 726.534 499 726.005 499C725.474 499 725 498.368 725 497.497C725 496.628 725.475 496 726.005 496Z" fill="white"/>
<path fill-rule="evenodd" clip-rule="evenodd" d="M903.992 558C904.526 558 905 558.446 905 559.056C905 559.637 904.501 560 903.992 560C903.488 560 903 559.632 903 559.056C903 558.451 903.462 558 903.992 558Z" fill="white"/>
<path fill-rule="evenodd" clip-rule="evenodd" d="M734.918 209C735.521 209 736 209.428 736 209.948C736 210.497 735.555 211 734.918 211C734.322 211 734 210.462 734 209.948C734 209.465 734.359 209 734.918 209Z" fill="white"/>
<path fill-rule="evenodd" clip-rule="evenodd" d="M833.958 147C834.473 147 835 147.366 835 148.008C835 148.646 834.47 149 833.958 149C833.471 149 833 148.614 833 148.008C833 147.398 833.468 147 833.958 147Z" fill="white"/>
<path fill-rule="evenodd" clip-rule="evenodd" d="M1158.92 177C1159.46 177 1160 177.366 1160 178C1160 178.635 1159.46 179 1158.92 179C1158.44 179 1158 178.58 1158 178C1158 177.42 1158.44 177 1158.92 177Z" fill="white"/>
<path fill-rule="evenodd" clip-rule="evenodd" d="M1189.95 379C1190.49 379 1191 379.637 1191 380.594C1191 381.505 1190.46 382 1189.95 382C1189.46 382 1189 381.447 1189 380.594C1189 379.692 1189.44 379 1189.95 379Z" fill="white"/>
<path fill-rule="evenodd" clip-rule="evenodd" d="M1258.36 306C1259.72 306 1261 306.861 1261 308.157C1261 309.641 1259.91 311 1258.36 311C1256.88 311 1256 309.575 1256 308.157C1256 306.938 1257.09 306 1258.36 306Z" fill="white"/>
<path fill-rule="evenodd" clip-rule="evenodd" d="M1074.37 454C1075.81 454 1077 455.542 1077 457.464C1077 459.407 1075.83 461 1074.37 461C1072.97 461 1072 459.311 1072 457.464C1072 455.638 1072.99 454 1074.37 454Z" fill="white"/>
<path fill-rule="evenodd" clip-rule="evenodd" d="M776.513 379C777.304 379 778 379.659 778 380.551C778 381.417 777.28 382 776.513 382C775.738 382 775 381.425 775 380.551C775 379.65 775.715 379 776.513 379Z" fill="white"/>
<path fill-rule="evenodd" clip-rule="evenodd" d="M878.019 439C878.519 439 879 439.6 879 440.532C879 441.449 878.51 442 878.019 442C877.516 442 877 441.471 877 440.532C877 439.578 877.508 439 878.019 439Z" fill="white"/>
<path fill-rule="evenodd" clip-rule="evenodd" d="M1010.6 496C1011.35 496 1012 496.589 1012 497.379C1012 498.236 1011.41 499 1010.6 499C1009.73 499 1009 498.294 1009 497.379C1009 496.526 1009.79 496 1010.6 496Z" fill="white"/>
<path fill-rule="evenodd" clip-rule="evenodd" d="M863.862 230C864.479 230 865 230.446 865 231.019C865 231.583 864.468 232 863.862 232C863.33 232 863 231.514 863 231.019C863 230.513 863.317 230 863.862 230Z" fill="white"/>
<path fill-rule="evenodd" clip-rule="evenodd" d="M1072.95 290C1073.48 290 1074 290.59 1074 291.515C1074 292.432 1073.48 293 1072.95 293C1072.45 293 1072 292.377 1072 291.515C1072 290.645 1072.44 290 1072.95 290Z" fill="white"/>
<path fill-rule="evenodd" clip-rule="evenodd" d="M871.035 334C871.54 334 872 334.404 872 334.978C872 335.563 871.55 336 871.035 336C870.5 336 870 335.587 870 334.978C870 334.381 870.509 334 871.035 334Z" fill="white"/>
<path fill-rule="evenodd" clip-rule="evenodd" d="M1015.9 334C1016.45 334 1017 334.371 1017 334.969C1017 335.582 1016.47 336 1015.9 336C1015.38 336 1015 335.52 1015 334.969C1015 334.435 1015.4 334 1015.9 334Z" fill="white"/>
<path fill-rule="evenodd" clip-rule="evenodd" d="M795.589 282C796.332 282 797 282.605 797 283.449C797 284.321 796.355 285 795.589 285C794.772 285 794 284.379 794 283.449C794 282.544 794.794 282 795.589 282Z" fill="white"/>
<path fill-rule="evenodd" clip-rule="evenodd" d="M971.1 173C971.648 173 972 173.77 972 174.568C972 175.326 971.62 176 971.1 176C970.524 176 970 175.407 970 174.568C970 173.692 970.499 173 971.1 173Z" fill="white"/>
<path fill-rule="evenodd" clip-rule="evenodd" d="M921.639 14C922.395 14 923 14.3775 923 14.8365C923 15.3937 922.557 16 921.639 16C920.654 16 920 15.4341 920 14.8365C920 14.3292 920.802 14 921.639 14Z" fill="white"/>
<path fill-rule="evenodd" clip-rule="evenodd" d="M1157.99 52C1158.54 52 1159 52.4058 1159 52.925C1159 53.4865 1158.58 54 1157.99 54C1157.4 54 1157 53.4828 1157 52.925C1157 52.4098 1157.45 52 1157.99 52Z" fill="white"/>
<path fill-rule="evenodd" clip-rule="evenodd" d="M1019.01 140C1020.59 140 1022 140.717 1022 141.698C1022 142.852 1020.87 144 1019.01 144C1017.14 144 1016 142.854 1016 141.698C1016 140.715 1017.42 140 1019.01 140Z" fill="white"/>
<path fill-rule="evenodd" clip-rule="evenodd" d="M672.005 96C672.533 96 673 96.6331 673 97.4973C673 98.363 672.534 99 672.005 99C671.474 99 671 98.3678 671 97.4973C671 96.6282 671.475 96 672.005 96Z" fill="white"/>
<path fill-rule="evenodd" clip-rule="evenodd" d="M849.992 158C850.526 158 851 158.446 851 159.056C851 159.637 850.501 160 849.992 160C849.488 160 849 159.632 849 159.056C849 158.451 849.462 158 849.992 158Z" fill="white"/>
<path fill-rule="evenodd" clip-rule="evenodd" d="M1019.42 54C1020.29 54 1021 54.6607 1021 55.4847C1021 56.3171 1020.3 57 1019.42 57C1018.58 57 1018 56.2761 1018 55.4847C1018 54.7022 1018.59 54 1019.42 54Z" fill="white"/>
<path fill-rule="evenodd" clip-rule="evenodd" d="M824.019 39C824.519 39 825 39.5998 825 40.5324C825 41.4489 824.51 42 824.019 42C823.516 42 823 41.4707 823 40.5324C823 39.5784 823.508 39 824.019 39Z" fill="white"/>
<path fill-rule="evenodd" clip-rule="evenodd" d="M956.601 96C957.348 96 958 96.589 958 97.3787C958 98.2357 957.411 99 956.601 99C955.735 99 955 98.2937 955 97.3787C955 96.5264 955.794 96 956.601 96Z" fill="white"/>
</svg>
