<svg width="28" height="26" viewBox="0 0 28 26" fill="none" xmlns="http://www.w3.org/2000/svg">
<path d="M6.40991 2.41284H21.6745C21.6745 2.41284 20.4026 21.1278 14.0423 21.1278C10.9352 21.1278 9.04243 16.6618 7.91902 12.093C6.74271 7.30922 6.40991 2.41284 6.40991 2.41284Z" stroke="#F4F7FD" stroke-width="2" stroke-linecap="round" stroke-linejoin="round"/>
<path d="M21.6746 2.41287C21.6746 2.41287 23.0052 1.02563 24.111 1.00116C26.2777 0.953214 26.6782 2.41287 26.6782 2.41287C27.1023 3.27334 27.4415 5.51054 25.4063 7.57565C23.3709 9.64075 21.0926 11.4477 20.1654 12.093" stroke="#F4F7FD" stroke-width="2" stroke-linecap="round" stroke-linejoin="round"/>
<path d="M6.40989 2.41294C6.40989 2.41294 5.02351 1.00989 3.88888 1.00124C1.72222 0.98471 1.32166 2.41294 1.32166 2.41294C0.897631 3.27339 0.558419 5.51059 2.59372 7.57571C4.62901 9.64082 6.99194 11.4478 7.91899 12.0932" stroke="#F4F7FD" stroke-width="2" stroke-linecap="round" stroke-linejoin="round"/>
<path d="M8.95398 24.9999C8.95398 22.4185 14.0421 21.1278 14.0421 21.1278C14.0421 21.1278 19.1305 22.4185 19.1305 24.9999H8.95398Z" stroke="#F4F7FD" stroke-width="2" stroke-linecap="round" stroke-linejoin="round"/>
</svg>
