<svg width="54" height="54" viewBox="0 0 54 54" fill="none" xmlns="http://www.w3.org/2000/svg">
<path d="M27 2C13.1929 2 2 13.1929 2 27C2 40.807 13.1929 52 27 52C40.807 52 52 40.807 52 27C52 13.1929 40.807 2 27 2Z" stroke="#002154" stroke-width="3" stroke-linecap="round" stroke-linejoin="round"/>
<path d="M7.67749 42.8642C7.67749 42.8642 13.25 35.75 27 35.75C40.75 35.75 46.3227 42.8642 46.3227 42.8642" stroke="#002154" stroke-width="3" stroke-linecap="round" stroke-linejoin="round"/>
<path d="M27 27C31.1422 27 34.5 23.6422 34.5 19.5C34.5 15.3579 31.1422 12 27 12C22.8577 12 19.5 15.3579 19.5 19.5C19.5 23.6422 22.8577 27 27 27Z" stroke="#002154" stroke-width="3" stroke-linecap="round" stroke-linejoin="round"/>
</svg>
