<svg width="194" height="194" viewBox="0 0 194 194" fill="none" xmlns="http://www.w3.org/2000/svg">
<path d="M97 5C46.1898 5 5 46.1898 5 97C5 147.81 46.1898 189 97 189C147.81 189 189 147.81 189 97C189 46.1898 147.81 5 97 5Z" stroke="#F4F7FD" stroke-width="10" stroke-linecap="round" stroke-linejoin="round"/>
<path d="M25.8932 155.38C25.8932 155.38 46.4002 129.2 97 129.2C147.6 129.2 168.108 155.38 168.108 155.38" stroke="#F4F7FD" stroke-width="10" stroke-linecap="round" stroke-linejoin="round"/>
<path d="M97 96.9999C112.244 96.9999 124.6 84.6434 124.6 69.3999C124.6 54.1569 112.244 41.7999 97 41.7999C81.7565 41.7999 69.4 54.1569 69.4 69.3999C69.4 84.6434 81.7565 96.9999 97 96.9999Z" stroke="#F4F7FD" stroke-width="10" stroke-linecap="round" stroke-linejoin="round"/>
</svg>
