<svg width="28" height="26" viewBox="0 0 28 26" fill="none" xmlns="http://www.w3.org/2000/svg">
<path d="M6.40991 2.41287H21.6745C21.6745 2.41287 20.4026 21.1279 14.0423 21.1279C10.9352 21.1279 9.04243 16.6618 7.91902 12.093C6.74271 7.30926 6.40991 2.41287 6.40991 2.41287Z" stroke="#F4F7FD" stroke-width="2" stroke-linecap="round" stroke-linejoin="round"/>
<path d="M21.6746 2.41287C21.6746 2.41287 23.0052 1.02563 24.1111 1.00116C26.2778 0.953214 26.6783 2.41287 26.6783 2.41287C27.1024 3.27334 27.4415 5.51054 25.4063 7.57565C23.371 9.64075 21.0927 11.4477 20.1655 12.093" stroke="#F4F7FD" stroke-width="2" stroke-linecap="round" stroke-linejoin="round"/>
<path d="M6.40989 2.41288C6.40989 2.41288 5.02351 1.00984 3.88888 1.00119C1.72222 0.984657 1.32166 2.41288 1.32166 2.41288C0.897631 3.27334 0.558419 5.51054 2.59372 7.57565C4.62901 9.64077 6.99194 11.4477 7.91899 12.0931" stroke="#F4F7FD" stroke-width="2" stroke-linecap="round" stroke-linejoin="round"/>
<path d="M8.95398 25C8.95398 22.4186 14.0421 21.1279 14.0421 21.1279C14.0421 21.1279 19.1305 22.4186 19.1305 25H8.95398Z" stroke="#F4F7FD" stroke-width="2" stroke-linecap="round" stroke-linejoin="round"/>
</svg>
